<svg xmlns="http://www.w3.org/2000/svg" xmlns:xlink="http://www.w3.org/1999/xlink" width="1080" zoomAndPan="magnify" viewBox="0 0 810 809.999993" height="1080" preserveAspectRatio="xMidYMid meet" version="1.0"><defs><g/><clipPath id="3eb7a31d97"><path d="M 85.890625 328.113281 L 186.296875 328.113281 L 186.296875 444.996094 L 85.890625 444.996094 Z M 85.890625 328.113281 " clip-rule="nonzero"/></clipPath><clipPath id="db9bc4e3d7"><path d="M 56.871094 315.332031 L 149 315.332031 L 149 424 L 56.871094 424 Z M 56.871094 315.332031 " clip-rule="nonzero"/></clipPath></defs><path fill="#105d91" d="M 94.859375 434.425781 L 94.859375 423.90625 C 104.34375 412.878906 105.578125 401.648438 102.753906 389.605469 C 98.9375 373.335938 85.167969 362.835938 79.75 359.253906 C 85.558594 361.730469 101.246094 369.640625 107.949219 385.167969 C 114.621094 400.617188 113.625 415.914062 94.859375 434.425781 " fill-opacity="1" fill-rule="nonzero"/><g clip-path="url(#3eb7a31d97)"><path fill="#56b1cd" d="M 159.578125 353.386719 C 152.238281 364.8125 148.308594 378.136719 148.308594 378.136719 C 149.960938 365.207031 155.449219 353.386719 155.449219 353.386719 C 161.898438 337.324219 170.371094 328.210938 170.371094 328.210938 C 170.359375 328.214844 170.351562 328.222656 170.34375 328.226562 C 169.492188 328.800781 152.539062 335.28125 137.601562 388.261719 C 124.609375 434.363281 85.949219 442.21875 85.949219 442.21875 C 85.949219 442.21875 89.664062 442.066406 94.859375 440.917969 L 94.859375 445.191406 L 127.023438 445.191406 C 138.777344 445.191406 148.308594 435.664062 148.308594 423.90625 L 148.308594 406.835938 L 186.296875 406.835938 L 186.296875 374.671875 C 186.296875 362.917969 176.769531 353.386719 165.011719 353.386719 L 159.578125 353.386719 " fill-opacity="1" fill-rule="nonzero"/></g><g clip-path="url(#db9bc4e3d7)"><path fill="#1b75bb" d="M 129.082031 364.9375 C 128.925781 366.242188 128.558594 367.472656 128.019531 368.5625 C 126.953125 370.714844 125.1875 372.328125 122.941406 372.933594 C 118.171875 374.214844 113.027344 370.484375 111.445312 364.597656 C 111.367188 364.308594 111.300781 364.019531 111.242188 363.730469 C 110.789062 361.476562 110.9375 359.261719 111.574219 357.347656 C 112.039062 353.457031 114.324219 350.257812 117.714844 349.347656 C 122.480469 348.0625 127.628906 351.796875 129.214844 357.683594 C 129.898438 360.238281 129.800781 362.777344 129.082031 364.9375 Z M 116.144531 315.398438 C 104.390625 315.398438 94.859375 324.929688 94.859375 336.683594 L 94.859375 353.386719 L 56.871094 353.386719 L 56.871094 385.550781 C 56.871094 393.730469 61.484375 400.835938 68.253906 404.394531 C 71.210938 405.953125 74.582031 406.835938 78.15625 406.835938 L 94.859375 406.835938 L 94.859375 423.90625 C 104.34375 412.878906 105.578125 401.648438 102.753906 389.605469 C 98.9375 373.332031 85.167969 362.835938 79.75 359.253906 C 78.359375 358.660156 77.535156 358.378906 77.535156 358.378906 C 77.898438 358.425781 78.257812 358.472656 78.613281 358.523438 C 79.148438 358.597656 79.671875 358.675781 80.191406 358.761719 C 94.421875 361.085938 105.039062 367.214844 112.246094 372.992188 C 114.277344 374.617188 116.03125 376.210938 117.523438 377.683594 C 121.050781 381.167969 123.101562 383.980469 123.738281 384.898438 C 123.882812 385.105469 123.953125 385.214844 123.953125 385.214844 C 124.152344 384.738281 124.355469 384.265625 124.558594 383.796875 C 131.789062 367.089844 140.460938 354.910156 148.308594 346.28125 L 148.308594 315.398438 L 116.144531 315.398438 " fill-opacity="1" fill-rule="nonzero"/></g><path fill="#105d91" d="M 129.082031 364.9375 C 128.925781 366.242188 128.558594 367.472656 128.019531 368.5625 C 126.953125 370.714844 125.1875 372.328125 122.941406 372.933594 C 118.171875 374.214844 113.027344 370.484375 111.445312 364.597656 C 111.367188 364.308594 111.300781 364.019531 111.242188 363.730469 C 110.789062 361.476562 110.9375 359.261719 111.574219 357.347656 C 111.414062 358.660156 111.464844 360.050781 111.746094 361.460938 C 111.804688 361.75 111.871094 362.039062 111.949219 362.324219 C 113.53125 368.214844 118.675781 371.945312 123.445312 370.664062 C 125.695312 370.058594 127.457031 368.445312 128.527344 366.292969 C 128.738281 365.863281 128.925781 365.40625 129.082031 364.9375 " fill-opacity="1" fill-rule="nonzero"/><g fill="#1b75bb" fill-opacity="1"><g transform="translate(199.593142, 398.497145)"><g><path d="M 28 -51.78125 C 46.113281 -51.78125 55.171875 -43.148438 55.171875 -25.890625 C 55.171875 -8.628906 46.113281 0 28 0 L 5.5625 0 L 5.5625 -51.78125 Z M 22.203125 -12.421875 L 27.703125 -12.421875 C 34.671875 -12.421875 38.15625 -16.160156 38.15625 -23.640625 L 38.15625 -28.15625 C 38.15625 -35.625 34.671875 -39.359375 27.703125 -39.359375 L 22.203125 -39.359375 Z M 22.203125 -12.421875 "/></g></g></g><g fill="#1b75bb" fill-opacity="1"><g transform="translate(258.130606, 398.497145)"><g><path d="M 25.0625 -40.640625 C 32.039062 -40.640625 37.523438 -38.867188 41.515625 -35.328125 C 45.503906 -31.796875 47.5 -26.644531 47.5 -19.875 C 47.5 -13.09375 45.503906 -7.929688 41.515625 -4.390625 C 37.523438 -0.859375 32.039062 0.90625 25.0625 0.90625 C 18.082031 0.90625 12.609375 -0.847656 8.640625 -4.359375 C 4.679688 -7.878906 2.703125 -13.050781 2.703125 -19.875 C 2.703125 -26.695312 4.679688 -31.863281 8.640625 -35.375 C 12.609375 -38.882812 18.082031 -40.640625 25.0625 -40.640625 Z M 25.0625 -30.484375 C 20.144531 -30.484375 17.6875 -27.648438 17.6875 -21.984375 L 17.6875 -17.6875 C 17.6875 -12.0625 20.144531 -9.25 25.0625 -9.25 C 30.03125 -9.25 32.515625 -12.0625 32.515625 -17.6875 L 32.515625 -21.984375 C 32.515625 -27.648438 30.03125 -30.484375 25.0625 -30.484375 Z M 25.0625 -30.484375 "/></g></g></g><g fill="#1b75bb" fill-opacity="1"><g transform="translate(308.316345, 398.497145)"><g><path d="M 25.0625 -40.640625 C 31.582031 -40.640625 36.863281 -39.242188 40.90625 -36.453125 C 44.945312 -33.671875 46.96875 -29.421875 46.96875 -23.703125 L 32.4375 -23.703125 C 32.4375 -28.222656 29.976562 -30.484375 25.0625 -30.484375 C 20.144531 -30.484375 17.6875 -27.648438 17.6875 -21.984375 L 17.6875 -17.6875 C 17.6875 -12.0625 20.242188 -9.25 25.359375 -9.25 C 30.484375 -9.25 33.046875 -11.5625 33.046875 -16.1875 L 46.96875 -16.1875 C 46.96875 -10.414062 44.945312 -6.125 40.90625 -3.3125 C 36.863281 -0.5 31.582031 0.90625 25.0625 0.90625 C 18.082031 0.90625 12.609375 -0.847656 8.640625 -4.359375 C 4.679688 -7.878906 2.703125 -13.050781 2.703125 -19.875 C 2.703125 -26.695312 4.679688 -31.863281 8.640625 -35.375 C 12.609375 -38.882812 18.082031 -40.640625 25.0625 -40.640625 Z M 25.0625 -40.640625 "/></g></g></g><g fill="#1b75bb" fill-opacity="1"><g transform="translate(358.502083, 398.497145)"><g><path d="M 31.015625 -39.734375 L 31.015625 -29.578125 L 22.578125 -29.578125 L 22.578125 -14.453125 C 22.578125 -12.640625 22.878906 -11.316406 23.484375 -10.484375 C 24.085938 -9.660156 25.191406 -9.25 26.796875 -9.25 L 31.015625 -9.25 L 31.015625 -0.453125 C 29.804688 -0.046875 28.25 0.28125 26.34375 0.53125 C 24.4375 0.78125 22.78125 0.90625 21.375 0.90625 C 16.957031 0.90625 13.554688 0.101562 11.171875 -1.5 C 8.796875 -3.101562 7.609375 -5.835938 7.609375 -9.703125 L 7.609375 -29.578125 L 2.03125 -29.578125 L 2.03125 -39.734375 L 8.203125 -39.734375 L 11.4375 -51.78125 L 22.578125 -51.78125 L 22.578125 -39.734375 Z M 31.015625 -39.734375 "/></g></g></g><g fill="#1b75bb" fill-opacity="1"><g transform="translate(391.909083, 398.497145)"><g><path d="M 25.0625 -40.640625 C 32.039062 -40.640625 37.523438 -38.867188 41.515625 -35.328125 C 45.503906 -31.796875 47.5 -26.644531 47.5 -19.875 C 47.5 -13.09375 45.503906 -7.929688 41.515625 -4.390625 C 37.523438 -0.859375 32.039062 0.90625 25.0625 0.90625 C 18.082031 0.90625 12.609375 -0.847656 8.640625 -4.359375 C 4.679688 -7.878906 2.703125 -13.050781 2.703125 -19.875 C 2.703125 -26.695312 4.679688 -31.863281 8.640625 -35.375 C 12.609375 -38.882812 18.082031 -40.640625 25.0625 -40.640625 Z M 25.0625 -30.484375 C 20.144531 -30.484375 17.6875 -27.648438 17.6875 -21.984375 L 17.6875 -17.6875 C 17.6875 -12.0625 20.144531 -9.25 25.0625 -9.25 C 30.03125 -9.25 32.515625 -12.0625 32.515625 -17.6875 L 32.515625 -21.984375 C 32.515625 -27.648438 30.03125 -30.484375 25.0625 -30.484375 Z M 25.0625 -30.484375 "/></g></g></g><g fill="#1b75bb" fill-opacity="1"><g transform="translate(442.094821, 398.497145)"><g><path d="M 28.671875 -40.71875 C 29.828125 -40.71875 30.851562 -40.578125 31.75 -40.296875 C 32.65625 -40.023438 33.109375 -39.863281 33.109375 -39.8125 L 33.109375 -27.25 L 28.296875 -27.25 C 25.191406 -27.25 22.945312 -26.441406 21.5625 -24.828125 C 20.1875 -23.222656 19.5 -20.84375 19.5 -17.6875 L 19.5 0 L 4.515625 0 L 4.515625 -39.734375 L 16.78125 -39.734375 L 17.765625 -33.71875 C 18.671875 -36.03125 20.097656 -37.773438 22.046875 -38.953125 C 24.003906 -40.128906 26.210938 -40.71875 28.671875 -40.71875 Z M 28.671875 -40.71875 "/></g></g></g><g fill="#1b75bb" fill-opacity="1"><g transform="translate(475.501821, 398.497145)"><g><path d="M 23.40625 -40.640625 C 28.726562 -40.640625 33.234375 -39.597656 36.921875 -37.515625 C 40.609375 -35.429688 42.453125 -32.207031 42.453125 -27.84375 L 28.53125 -27.84375 C 28.53125 -29.300781 27.875 -30.332031 26.5625 -30.9375 C 25.664062 -31.4375 24.539062 -31.6875 23.1875 -31.6875 C 19.570312 -31.6875 17.765625 -30.832031 17.765625 -29.125 C 17.765625 -28.175781 18.390625 -27.5 19.640625 -27.09375 C 20.898438 -26.695312 22.957031 -26.269531 25.8125 -25.8125 C 29.320312 -25.3125 32.253906 -24.722656 34.609375 -24.046875 C 36.972656 -23.367188 39.03125 -22.164062 40.78125 -20.4375 C 42.539062 -18.707031 43.421875 -16.285156 43.421875 -13.171875 C 43.421875 -8.097656 41.523438 -4.484375 37.734375 -2.328125 C 33.953125 -0.171875 29 0.90625 22.875 0.90625 C 19.363281 0.90625 16.050781 0.414062 12.9375 -0.5625 C 9.832031 -1.539062 7.300781 -3.054688 5.34375 -5.109375 C 3.382812 -7.171875 2.40625 -9.785156 2.40625 -12.953125 L 16.328125 -12.953125 L 16.328125 -12.640625 C 16.378906 -10.929688 17.09375 -9.738281 18.46875 -9.0625 C 19.851562 -8.382812 21.320312 -8.046875 22.875 -8.046875 C 27.039062 -8.046875 29.125 -9.023438 29.125 -10.984375 C 29.125 -11.992188 28.472656 -12.722656 27.171875 -13.171875 C 25.867188 -13.617188 23.734375 -14.09375 20.765625 -14.59375 C 17.203125 -15.195312 14.28125 -15.847656 12 -16.546875 C 9.71875 -17.253906 7.722656 -18.445312 6.015625 -20.125 C 4.316406 -21.8125 3.46875 -24.160156 3.46875 -27.171875 C 3.46875 -32.035156 5.3125 -35.492188 9 -37.546875 C 12.6875 -39.609375 17.488281 -40.640625 23.40625 -40.640625 Z M 23.40625 -40.640625 "/></g></g></g><g fill="#1b75bb" fill-opacity="1"><g transform="translate(521.474053, 398.497145)"><g><path d="M 2.9375 -14.75 L 2.9375 -26.640625 L 22.125 -26.640625 L 22.125 -14.75 Z M 2.9375 -14.75 "/></g></g></g><g fill="#1b75bb" fill-opacity="1"><g transform="translate(546.529294, 398.497145)"><g><path d="M 40.5 0 L 40.5 -19.640625 L 22.203125 -19.640625 L 22.203125 0 L 5.5625 0 L 5.5625 -51.78125 L 22.203125 -51.78125 L 22.203125 -32.890625 L 40.5 -32.890625 L 40.5 -51.78125 L 57.125 -51.78125 L 57.125 0 Z M 40.5 0 "/></g></g></g><g fill="#1b75bb" fill-opacity="1"><g transform="translate(609.205042, 398.497145)"><g><path d="M 33.34375 0 L 32.359375 -6.015625 C 30.804688 -3.859375 28.757812 -2.164062 26.21875 -0.9375 C 23.6875 0.289062 21.019531 0.90625 18.21875 0.90625 C 13.601562 0.90625 10.140625 -0.375 7.828125 -2.9375 C 5.515625 -5.5 4.359375 -9.1875 4.359375 -14 L 4.359375 -39.734375 L 19.34375 -39.734375 L 19.34375 -15.8125 C 19.34375 -14.101562 19.78125 -12.734375 20.65625 -11.703125 C 21.539062 -10.671875 22.785156 -10.15625 24.390625 -10.15625 C 26.242188 -10.15625 27.75 -10.757812 28.90625 -11.96875 C 30.0625 -13.175781 30.640625 -14.65625 30.640625 -16.40625 L 30.640625 -39.734375 L 45.609375 -39.734375 L 45.609375 0 Z M 33.34375 0 "/></g></g></g><g fill="#1b75bb" fill-opacity="1"><g transform="translate(659.39078, 398.497145)"><g><path d="M 19.5625 -36.046875 C 22.425781 -39.109375 26.140625 -40.640625 30.703125 -40.640625 C 36.078125 -40.640625 40.21875 -38.894531 43.125 -35.40625 C 46.039062 -31.925781 47.5 -26.773438 47.5 -19.953125 C 47.5 -13.078125 46.039062 -7.878906 43.125 -4.359375 C 40.21875 -0.847656 36.078125 0.90625 30.703125 0.90625 C 25.179688 0.90625 20.96875 -1.273438 18.0625 -5.640625 L 16.78125 0 L 4.59375 0 L 4.59375 -54.5625 L 19.5625 -54.5625 Z M 26.046875 -29.578125 C 23.835938 -29.578125 22.179688 -28.785156 21.078125 -27.203125 C 19.972656 -25.628906 19.421875 -23.585938 19.421875 -21.078125 L 19.421875 -18.59375 C 19.421875 -16.082031 19.972656 -14.046875 21.078125 -12.484375 C 22.179688 -10.929688 23.835938 -10.15625 26.046875 -10.15625 C 30.359375 -10.15625 32.515625 -12.71875 32.515625 -17.84375 L 32.515625 -21.828125 C 32.515625 -26.992188 30.359375 -29.578125 26.046875 -29.578125 Z M 26.046875 -29.578125 "/></g></g></g></svg>